<svg xmlns="http://www.w3.org/2000/svg" xmlns:xlink="http://www.w3.org/1999/xlink" fill="none" version="1.1" width="79" height="79" viewBox="0 0 79 79"><defs><linearGradient x1="0" y1="0.5000043511390686" x2="1" y2="0.5000043511390686" id="master_svg0_9_3"><stop offset="0%" stop-color="#1076FD" stop-opacity="1"/><stop offset="100%" stop-color="#FF05DD" stop-opacity="1"/></linearGradient></defs><g><g><path d="M33.3774,49.7541465637207C33.3774,48.2104465637207,32.805099999999996,47.0076465637207,31.6607,46.1455465637207C30.5371,45.28364656372071,28.5499,44.3915465637207,25.6993,43.469346563720705C22.848599999999998,42.5471465637207,20.5182,41.6550465637207,18.70789,40.792946563720704C12.81929,38.0064465637207,9.87499867389,34.177346563720704,9.875,29.305846563720703C9.875000660324,26.880206563720705,10.603273,24.745176563720705,12.05981,22.900826563720702C13.53717,21.036436563720702,15.61795,19.593036563720702,18.302149999999997,18.570636563720704C20.9864,17.528173563720703,24.003500000000003,17.006945717222703,27.3535,17.006946563721634C30.6204,17.006947389189705,33.543800000000005,17.568271563720703,36.123999999999995,18.6909165637207C37.3916,19.238056563720704,38.5208,19.899456563720705,39.5116,20.675146563720702C40.176500000000004,20.228596563720703,40.8921,19.827826563720702,41.6588,19.472846563720704C44.343,18.229926563720703,47.5161,17.608453563720705,51.1783,17.608454563720702C56.7132,17.608456563720704,61.0724,18.991716563720704,64.256,21.758236563720704C67.43950000000001,24.524756563720704,69.0626,28.313646563720702,69.125,33.1250465637207C69.125,33.1250465637207,69.125,61.9930465637207,69.125,61.9930465637207C69.125,61.9930465637207,58.1073,61.9930465637207,58.1073,61.9930465637207C58.1073,61.9930465637207,58.1073,32.914546563720705,58.1073,32.914546563720705C57.9825,28.123146563720702,55.6728,25.727586563720703,51.1783,25.727586563720703C48.9103,25.727586563720703,47.1936,26.329006563720704,46.0284,27.531846563720705C44.8632,28.734646563720702,44.2806,30.6892465637207,44.2806,33.3956465637207C44.2806,33.3956465637207,44.2806,40.6232465637207,44.2806,40.6232465637207C42.4678,38.5175465637207,39.984,36.7559465637207,36.9711,35.329746563720704C35.8962,34.8181465637207,34.6787,34.3076465637207,33.325199999999995,33.797246563720705C33.325199999999995,33.797246563720705,33.325199999999995,33.335546563720705,33.325199999999995,33.335546563720705C33.325199999999995,32.3865465637207,33.3866,31.4743465637207,33.509100000000004,30.598946563720702C33.509100000000004,30.598946563720702,33.4086,30.598946563720702,33.4086,30.598946563720702C33.4086,28.814746563720703,32.8364,27.431446563720705,31.692,26.4492065637207C30.5683,25.466886563720703,29.0389,24.975726563720702,27.1038,24.975726563720702C25.1479,24.975726563720702,23.5977,25.3967165637207,22.4533,26.238706563720704C21.329700000000003,27.060646563720702,20.767899999999997,28.1130465637207,20.767899999999997,29.396146563720706C20.767899999999997,30.518846563720704,21.3921,31.541246563720705,22.6405,32.463346563720705C23.8891,33.3655465637207,26.0842,34.3077465637207,29.2262,35.29004656372071C32.3682,36.2522465637207,34.9483,37.294846563720704,36.9667,38.4173465637207C41.8773,41.1438465637207,44.3327,44.90264656372071,44.3327,49.6939465637207C44.3327,53.523046563720705,42.8345,56.530146563720706,39.8382,58.715246563720704C36.8418,60.9003465637207,32.732299999999995,61.9929465637207,27.5096,61.9929465637207C27.5096,61.9929465637207,27.5096,54.0542465637207,27.5096,54.0542465637207C29.3199,54.0542465637207,30.7452,53.683346563720704,31.7855,52.9416465637207C32.8468,52.1798465637207,33.3774,51.1173465637207,33.3774,49.7541465637207C33.3774,49.7541465637207,33.3774,49.7541465637207,33.3774,49.7541465637207Z" fill="url(#master_svg0_9_3)" fill-opacity="1"/></g><g><rect x="0" y="0" width="79" height="79" rx="0" fill="#F9F9F9" fill-opacity="0"/></g></g></svg>