<svg xmlns="http://www.w3.org/2000/svg" xmlns:xlink="http://www.w3.org/1999/xlink" fill="none" version="1.1" width="80" height="80" viewBox="0 0 80 80"><defs><filter id="master_svg0_7_04" filterUnits="objectBoundingBox" color-interpolation-filters="sRGB" x="-0.05" y="-0.025" width="1.1" height="1.1"><feFlood flood-opacity="0" result="BackgroundImageFix"/><feColorMatrix in="SourceAlpha" type="matrix" values="0 0 0 0 0 0 0 0 0 0 0 0 0 0 0 0 0 0 127 0"/><feOffset dy="2" dx="0"/><feGaussianBlur stdDeviation="1"/><feColorMatrix type="matrix" values="0 0 0 0 0 0 0 0 0 0 0 0 0 0 0 0 0 0 0.25 0"/><feBlend mode="normal" in2="BackgroundImageFix" result="effect1_dropShadow"/><feBlend mode="normal" in="SourceGraphic" in2="effect1_dropShadow" result="shape"/></filter><linearGradient x1="0.5" y1="-3.0616171314629196e-17" x2="0.5" y2="1" id="master_svg1_7_18"><stop offset="0%" stop-color="#FFFFFF" stop-opacity="0"/><stop offset="100%" stop-color="#FFFFFF" stop-opacity="0"/></linearGradient></defs><g><g filter="url(#master_svg0_7_04)"><rect x="0" y="0" width="80" height="80" rx="16.519880294799805" fill="#F9F9F9" fill-opacity="0"/><rect x="0.5" y="0.5" width="79" height="79" rx="16.019880294799805" stroke="url(#master_svg1_7_18)" fill-opacity="0" fill="none" stroke-width="1"/></g><g transform="matrix(0,-1,1,0,-47.00439453125,71.00439453125)"><g transform="matrix(0,-1,1,0,-102.51119232177734,126.51119232177734)"><path d="M39.7534,125.96499232177734C30.7208,125.96499232177734,23.4842,133.19129232177735,23.4842,142.00029232177735C23.4842,142.00029232177735,12,142.00029232177735,12,142.00029232177735C12,126.77139232177734,24.473,114.51119232177734,39.7534,114.51119232177734C55.0338,114.51119232177734,67.5068,126.77139232177734,67.5068,142.00029232177735C67.5068,142.00029232177735,56.0226,142.00029232177735,56.0226,142.00029232177735C56.0226,133.19129232177735,48.786,125.96499232177734,39.7534,125.96499232177734C39.7534,125.96499232177734,39.7534,125.96499232177734,39.7534,125.96499232177734Z" fill-rule="evenodd" fill="#8759F2" fill-opacity="1"/></g><g><ellipse cx="29.973740577697754" cy="73.54176044464111" rx="7.400906562805176" ry="7.136588096618652" fill="#FF3E80" fill-opacity="1"/></g><g><ellipse cx="41.86781597137451" cy="86.7577257156372" rx="7.136588096618652" ry="7.136588096618652" fill="#FFC300" fill-opacity="1"/></g></g></g></svg>